<mxfile host="app.diagrams.net" modified="2023-04-06T03:15:18.133Z" agent="Mozilla/5.0 (Windows NT 10.0; Win64; x64; rv:109.0) Gecko/20100101 Firefox/111.0" version="21.1.4" etag="NQnJJoeWEplpdV4ZJF66" type="github">
  <diagram name="第 1 页" id="tUd3vnrTtgvUvXsPZ9Fa">
    <mxGraphModel>
      <root>
        <mxCell id="0" />
        <mxCell id="1" parent="0" />
      </root>
    </mxGraphModel>
  </diagram>
</mxfile>
